<svg xmlns="http://www.w3.org/2000/svg" xmlns:xlink="http://www.w3.org/1999/xlink" width="336" zoomAndPan="magnify" viewBox="0 0 252 143.999998" height="192" preserveAspectRatio="xMidYMid meet" version="1.2"><defs><clipPath id="78bc7edead"><path d="M 147.074219 57.910156 L 216.320312 57.910156 L 216.320312 88.765625 L 147.074219 88.765625 Z M 147.074219 57.910156 "/></clipPath><clipPath id="15de35bd43"><path d="M 60 64 L 67 64 L 67 70 L 60 70 Z M 60 64 "/></clipPath><clipPath id="c45c3035b7"><path d="M 61.164062 64.015625 L 66.378906 64.597656 L 65.796875 69.816406 L 60.578125 69.230469 Z M 61.164062 64.015625 "/></clipPath><clipPath id="da5572bd3d"><path d="M 61.164062 64.015625 L 66.378906 64.597656 L 65.796875 69.816406 L 60.578125 69.230469 Z M 61.164062 64.015625 "/></clipPath></defs><g id="939541a591"><g clip-rule="nonzero" clip-path="url(#78bc7edead)"><path style=" stroke:none;fill-rule:nonzero;fill:#1c2120;fill-opacity:1;" d="M 147.074219 57.910156 L 216.375 57.910156 L 216.375 88.765625 L 147.074219 88.765625 Z M 147.074219 57.910156 "/></g><g style="fill:#1c2120;fill-opacity:1;"><g transform="translate(65.449951, 79.713199)"><path style="stroke:none" d="M 11.609375 -1.75 C 11.910156 -1.257812 12.179688 -0.890625 12.421875 -0.640625 C 12.660156 -0.390625 12.847656 -0.222656 12.984375 -0.140625 C 13.117188 -0.0546875 13.1875 -0.015625 13.1875 -0.015625 L 10.625 -0.015625 C 10.625 -0.015625 10.632812 -0.0351562 10.65625 -0.078125 C 10.6875 -0.117188 10.695312 -0.195312 10.6875 -0.3125 C 10.6875 -0.4375 10.640625 -0.613281 10.546875 -0.84375 C 10.460938 -1.070312 10.3125 -1.375 10.09375 -1.75 L 6.890625 -6.953125 C 6.890625 -6.953125 6.78125 -6.953125 6.5625 -6.953125 C 6.34375 -6.953125 6.0625 -6.953125 5.71875 -6.953125 C 5.375 -6.953125 5.007812 -6.953125 4.625 -6.953125 C 4.238281 -6.953125 3.875 -6.953125 3.53125 -6.953125 C 3.1875 -6.953125 2.90625 -6.953125 2.6875 -6.953125 C 2.46875 -6.953125 2.359375 -6.953125 2.359375 -6.953125 L 2.359375 -1.671875 C 2.359375 -1.171875 2.398438 -0.800781 2.484375 -0.5625 C 2.578125 -0.332031 2.664062 -0.179688 2.75 -0.109375 C 2.832031 -0.046875 2.875 -0.015625 2.875 -0.015625 L 0.3125 -0.015625 C 0.3125 -0.015625 0.351562 -0.046875 0.4375 -0.109375 C 0.53125 -0.179688 0.617188 -0.335938 0.703125 -0.578125 C 0.796875 -0.816406 0.84375 -1.179688 0.84375 -1.671875 L 0.84375 -16.1875 C 0.84375 -16.695312 0.796875 -17.070312 0.703125 -17.3125 C 0.617188 -17.5625 0.53125 -17.726562 0.4375 -17.8125 C 0.351562 -17.894531 0.3125 -17.9375 0.3125 -17.9375 C 0.3125 -17.9375 0.4375 -17.9375 0.6875 -17.9375 C 0.945312 -17.9375 1.289062 -17.9375 1.71875 -17.9375 C 2.144531 -17.9375 2.609375 -17.9375 3.109375 -17.9375 C 3.617188 -17.9375 4.132812 -17.9375 4.65625 -17.9375 C 5.175781 -17.9375 5.660156 -17.9375 6.109375 -17.9375 C 6.554688 -17.9375 6.925781 -17.9375 7.21875 -17.9375 C 7.507812 -17.9375 7.679688 -17.9375 7.734375 -17.9375 C 8.554688 -17.9375 9.332031 -17.8125 10.0625 -17.5625 C 10.789062 -17.320312 11.4375 -16.96875 12 -16.5 C 12.570312 -16.039062 13.019531 -15.484375 13.34375 -14.828125 C 13.664062 -14.171875 13.828125 -13.429688 13.828125 -12.609375 C 13.828125 -11.535156 13.644531 -10.601562 13.28125 -9.8125 C 12.914062 -9.03125 12.332031 -8.40625 11.53125 -7.9375 C 10.738281 -7.46875 9.691406 -7.164062 8.390625 -7.03125 Z M 6.0625 -7.40625 C 6.9375 -7.40625 7.742188 -7.472656 8.484375 -7.609375 C 9.234375 -7.753906 9.890625 -8.007812 10.453125 -8.375 C 11.015625 -8.738281 11.453125 -9.257812 11.765625 -9.9375 C 12.078125 -10.613281 12.234375 -11.492188 12.234375 -12.578125 C 12.234375 -13.441406 12.070312 -14.179688 11.75 -14.796875 C 11.4375 -15.410156 11.019531 -15.90625 10.5 -16.28125 C 9.976562 -16.664062 9.394531 -16.945312 8.75 -17.125 C 8.113281 -17.300781 7.472656 -17.390625 6.828125 -17.390625 L 2.515625 -17.390625 C 2.472656 -17.265625 2.4375 -17.101562 2.40625 -16.90625 C 2.375 -16.707031 2.359375 -16.46875 2.359375 -16.1875 L 2.359375 -7.40625 Z M 6.0625 -7.40625 "/></g></g><g style="fill:#1c2120;fill-opacity:1;"><g transform="translate(81.92087, 79.713199)"><path style="stroke:none" d="M 6.890625 -8.765625 C 6.890625 -8.765625 6.847656 -8.828125 6.765625 -8.953125 C 6.691406 -9.085938 6.546875 -9.234375 6.328125 -9.390625 C 6.109375 -9.554688 5.800781 -9.703125 5.40625 -9.828125 C 5.019531 -9.960938 4.515625 -10.03125 3.890625 -10.03125 L 2.359375 -10.03125 L 2.359375 -1.75 C 2.359375 -1.457031 2.375 -1.207031 2.40625 -1 C 2.445312 -0.800781 2.492188 -0.632812 2.546875 -0.5 L 5.578125 -0.5 C 6.742188 -0.5 7.722656 -0.5625 8.515625 -0.6875 C 9.304688 -0.820312 9.941406 -0.984375 10.421875 -1.171875 C 10.898438 -1.359375 11.257812 -1.539062 11.5 -1.71875 C 11.75 -1.90625 11.914062 -2.0625 12 -2.1875 C 12.082031 -2.320312 12.125 -2.390625 12.125 -2.390625 L 11.609375 -0.015625 L 0.3125 -0.015625 C 0.3125 -0.015625 0.351562 -0.0546875 0.4375 -0.140625 C 0.53125 -0.222656 0.617188 -0.390625 0.703125 -0.640625 C 0.796875 -0.890625 0.84375 -1.257812 0.84375 -1.75 L 0.84375 -16.28125 C 0.84375 -16.78125 0.796875 -17.144531 0.703125 -17.375 C 0.617188 -17.613281 0.53125 -17.769531 0.4375 -17.84375 C 0.351562 -17.914062 0.3125 -17.953125 0.3125 -17.953125 L 11.609375 -17.953125 L 12.125 -15.5625 C 12.125 -15.5625 12.082031 -15.625 12 -15.75 C 11.914062 -15.875 11.75 -16.03125 11.5 -16.21875 C 11.257812 -16.414062 10.898438 -16.601562 10.421875 -16.78125 C 9.941406 -16.96875 9.304688 -17.125 8.515625 -17.25 C 7.722656 -17.382812 6.742188 -17.453125 5.578125 -17.453125 L 2.515625 -17.453125 C 2.472656 -17.328125 2.4375 -17.171875 2.40625 -16.984375 C 2.375 -16.796875 2.359375 -16.566406 2.359375 -16.296875 L 2.359375 -10.453125 L 3.890625 -10.453125 C 4.515625 -10.453125 5.019531 -10.515625 5.40625 -10.640625 C 5.800781 -10.773438 6.109375 -10.921875 6.328125 -11.078125 C 6.546875 -11.242188 6.691406 -11.390625 6.765625 -11.515625 C 6.847656 -11.648438 6.890625 -11.71875 6.890625 -11.71875 Z M 6.890625 -8.765625 "/></g></g><g style="fill:#1c2120;fill-opacity:1;"><g transform="translate(96.689675, 79.713199)"><path style="stroke:none" d="M 11.953125 -4.859375 C 11.953125 -5.441406 11.828125 -5.9375 11.578125 -6.34375 C 11.335938 -6.75 11.007812 -7.09375 10.59375 -7.375 C 10.175781 -7.65625 9.703125 -7.894531 9.171875 -8.09375 C 8.640625 -8.300781 8.070312 -8.492188 7.46875 -8.671875 C 6.875 -8.847656 6.28125 -9.03125 5.6875 -9.21875 C 5.09375 -9.40625 4.523438 -9.625 3.984375 -9.875 C 3.453125 -10.125 2.976562 -10.425781 2.5625 -10.78125 C 2.144531 -11.144531 1.816406 -11.582031 1.578125 -12.09375 C 1.335938 -12.601562 1.21875 -13.21875 1.21875 -13.9375 C 1.21875 -14.0625 1.242188 -14.238281 1.296875 -14.46875 C 1.347656 -14.707031 1.441406 -14.976562 1.578125 -15.28125 C 1.722656 -15.582031 1.929688 -15.890625 2.203125 -16.203125 C 2.472656 -16.515625 2.816406 -16.800781 3.234375 -17.0625 C 3.660156 -17.320312 4.175781 -17.53125 4.78125 -17.6875 C 5.394531 -17.851562 6.117188 -17.9375 6.953125 -17.9375 C 7.742188 -17.9375 8.472656 -17.867188 9.140625 -17.734375 C 9.816406 -17.609375 10.40625 -17.457031 10.90625 -17.28125 C 11.414062 -17.101562 11.8125 -16.953125 12.09375 -16.828125 C 12.382812 -16.703125 12.53125 -16.640625 12.53125 -16.640625 L 12.03125 -13.875 C 12.03125 -13.875 12.003906 -13.957031 11.953125 -14.125 C 11.898438 -14.300781 11.804688 -14.523438 11.671875 -14.796875 C 11.546875 -15.078125 11.359375 -15.367188 11.109375 -15.671875 C 10.859375 -15.972656 10.539062 -16.257812 10.15625 -16.53125 C 9.769531 -16.8125 9.296875 -17.035156 8.734375 -17.203125 C 8.179688 -17.378906 7.523438 -17.46875 6.765625 -17.46875 C 6.335938 -17.46875 5.890625 -17.40625 5.421875 -17.28125 C 4.960938 -17.164062 4.535156 -16.972656 4.140625 -16.703125 C 3.742188 -16.441406 3.421875 -16.082031 3.171875 -15.625 C 2.921875 -15.175781 2.796875 -14.617188 2.796875 -13.953125 C 2.796875 -13.390625 2.921875 -12.910156 3.171875 -12.515625 C 3.421875 -12.128906 3.765625 -11.796875 4.203125 -11.515625 C 4.640625 -11.242188 5.132812 -11.003906 5.6875 -10.796875 C 6.238281 -10.597656 6.828125 -10.410156 7.453125 -10.234375 C 8.078125 -10.066406 8.695312 -9.882812 9.3125 -9.6875 C 9.925781 -9.5 10.507812 -9.28125 11.0625 -9.03125 C 11.625 -8.789062 12.117188 -8.492188 12.546875 -8.140625 C 12.984375 -7.785156 13.328125 -7.359375 13.578125 -6.859375 C 13.828125 -6.359375 13.953125 -5.757812 13.953125 -5.0625 C 13.953125 -3.851562 13.660156 -2.878906 13.078125 -2.140625 C 12.503906 -1.398438 11.6875 -0.859375 10.625 -0.515625 C 9.5625 -0.171875 8.300781 0 6.84375 0 C 5.96875 0 5.191406 -0.078125 4.515625 -0.234375 C 3.835938 -0.390625 3.253906 -0.59375 2.765625 -0.84375 C 2.273438 -1.09375 1.859375 -1.359375 1.515625 -1.640625 C 1.179688 -1.921875 0.914062 -2.179688 0.71875 -2.421875 C 0.519531 -2.671875 0.382812 -2.863281 0.3125 -3 L 1.375 -4.734375 C 1.414062 -4.578125 1.515625 -4.328125 1.671875 -3.984375 C 1.828125 -3.648438 2.039062 -3.28125 2.3125 -2.875 C 2.59375 -2.476562 2.941406 -2.09375 3.359375 -1.71875 C 3.785156 -1.34375 4.289062 -1.035156 4.875 -0.796875 C 5.457031 -0.554688 6.117188 -0.4375 6.859375 -0.4375 C 8.015625 -0.4375 8.96875 -0.617188 9.71875 -0.984375 C 10.46875 -1.347656 11.023438 -1.859375 11.390625 -2.515625 C 11.765625 -3.179688 11.953125 -3.960938 11.953125 -4.859375 Z M 11.953125 -4.859375 "/></g></g><g style="fill:#1c2120;fill-opacity:1;"><g transform="translate(113.285748, 79.713199)"><path style="stroke:none" d="M 14.8125 -2.78125 C 14.09375 -1.820312 13.175781 -1.117188 12.0625 -0.671875 C 10.945312 -0.234375 9.660156 -0.015625 8.203125 -0.015625 C 7.117188 -0.015625 6.097656 -0.210938 5.140625 -0.609375 C 4.191406 -1.003906 3.351562 -1.582031 2.625 -2.34375 C 1.90625 -3.113281 1.335938 -4.050781 0.921875 -5.15625 C 0.515625 -6.269531 0.3125 -7.539062 0.3125 -8.96875 C 0.3125 -10.382812 0.515625 -11.648438 0.921875 -12.765625 C 1.335938 -13.878906 1.921875 -14.820312 2.671875 -15.59375 C 3.429688 -16.363281 4.320312 -16.945312 5.34375 -17.34375 C 6.375 -17.75 7.503906 -17.953125 8.734375 -17.953125 C 9.597656 -17.953125 10.332031 -17.878906 10.9375 -17.734375 C 11.550781 -17.597656 12.066406 -17.429688 12.484375 -17.234375 C 12.898438 -17.046875 13.253906 -16.863281 13.546875 -16.6875 C 13.847656 -16.519531 14.125 -16.390625 14.375 -16.296875 C 14.625 -16.203125 14.894531 -16.191406 15.1875 -16.265625 L 14.328125 -13.96875 C 13.921875 -14.632812 13.519531 -15.191406 13.125 -15.640625 C 12.738281 -16.085938 12.316406 -16.441406 11.859375 -16.703125 C 11.398438 -16.972656 10.875 -17.164062 10.28125 -17.28125 C 9.695312 -17.394531 9.003906 -17.453125 8.203125 -17.453125 C 7.679688 -17.453125 7.128906 -17.34375 6.546875 -17.125 C 5.972656 -16.914062 5.410156 -16.585938 4.859375 -16.140625 C 4.304688 -15.703125 3.804688 -15.144531 3.359375 -14.46875 C 2.910156 -13.789062 2.554688 -12.992188 2.296875 -12.078125 C 2.035156 -11.171875 1.90625 -10.144531 1.90625 -9 C 1.90625 -7.550781 2.066406 -6.296875 2.390625 -5.234375 C 2.710938 -4.179688 3.164062 -3.3125 3.75 -2.625 C 4.332031 -1.9375 5.003906 -1.425781 5.765625 -1.09375 C 6.523438 -0.757812 7.335938 -0.59375 8.203125 -0.59375 C 9.234375 -0.59375 10.085938 -0.691406 10.765625 -0.890625 C 11.453125 -1.097656 12.035156 -1.410156 12.515625 -1.828125 C 12.992188 -2.253906 13.421875 -2.796875 13.796875 -3.453125 Z M 14.8125 -2.78125 "/></g></g><g style="fill:#1c2120;fill-opacity:1;"><g transform="translate(131.10834, 79.713199)"><path style="stroke:none" d="M 12.828125 -0.015625 C 12.828125 -0.015625 12.84375 -0.0351562 12.875 -0.078125 C 12.914062 -0.117188 12.945312 -0.195312 12.96875 -0.3125 C 12.988281 -0.4375 12.976562 -0.613281 12.9375 -0.84375 C 12.90625 -1.070312 12.816406 -1.375 12.671875 -1.75 L 11.234375 -5.40625 L 3.234375 -5.40625 L 1.796875 -1.75 C 1.660156 -1.375 1.570312 -1.070312 1.53125 -0.84375 C 1.5 -0.613281 1.492188 -0.4375 1.515625 -0.3125 C 1.535156 -0.195312 1.5625 -0.117188 1.59375 -0.078125 C 1.625 -0.0351562 1.640625 -0.015625 1.640625 -0.015625 L 0.3125 -0.015625 C 0.3125 -0.015625 0.367188 -0.0546875 0.484375 -0.140625 C 0.609375 -0.222656 0.757812 -0.390625 0.9375 -0.640625 C 1.125 -0.890625 1.316406 -1.257812 1.515625 -1.75 L 7.859375 -17.9375 L 14.1875 -1.75 C 14.394531 -1.257812 14.585938 -0.890625 14.765625 -0.640625 C 14.953125 -0.390625 15.101562 -0.222656 15.21875 -0.140625 C 15.332031 -0.0546875 15.390625 -0.015625 15.390625 -0.015625 Z M 3.359375 -5.703125 L 11.125 -5.703125 L 7.234375 -15.625 Z M 3.359375 -5.703125 "/></g></g><g style="fill:#f3f4f0;fill-opacity:1;"><g transform="translate(152.89615, 78.080995)"><path style="stroke:none" d="M 1.453125 -12.265625 L 4.296875 -12.265625 L 4.296875 0 L 1.453125 0 Z M 1.453125 -12.265625 "/></g></g><g style="fill:#f3f4f0;fill-opacity:1;"><g transform="translate(161.546292, 78.080995)"><path style="stroke:none" d="M 12.703125 -12.265625 L 12.703125 0 L 10.375 0 L 4.25 -7.4375 L 4.25 0 L 1.453125 0 L 1.453125 -12.265625 L 3.796875 -12.265625 L 9.890625 -4.8125 L 9.890625 -12.265625 Z M 12.703125 -12.265625 "/></g></g><g style="fill:#f3f4f0;fill-opacity:1;"><g transform="translate(178.599584, 78.080995)"><path style="stroke:none" d="M 7.328125 0.203125 C 6.078125 0.203125 4.945312 -0.0664062 3.9375 -0.609375 C 2.925781 -1.148438 2.128906 -1.898438 1.546875 -2.859375 C 0.972656 -3.828125 0.6875 -4.914062 0.6875 -6.125 C 0.6875 -7.34375 0.972656 -8.429688 1.546875 -9.390625 C 2.128906 -10.359375 2.925781 -11.113281 3.9375 -11.65625 C 4.945312 -12.195312 6.082031 -12.46875 7.34375 -12.46875 C 8.40625 -12.46875 9.363281 -12.28125 10.21875 -11.90625 C 11.070312 -11.53125 11.796875 -10.992188 12.390625 -10.296875 L 10.5625 -8.625 C 9.726562 -9.570312 8.703125 -10.046875 7.484375 -10.046875 C 6.722656 -10.046875 6.039062 -9.878906 5.4375 -9.546875 C 4.84375 -9.222656 4.378906 -8.757812 4.046875 -8.15625 C 3.722656 -7.5625 3.5625 -6.882812 3.5625 -6.125 C 3.5625 -5.363281 3.722656 -4.6875 4.046875 -4.09375 C 4.378906 -3.5 4.84375 -3.035156 5.4375 -2.703125 C 6.039062 -2.367188 6.722656 -2.203125 7.484375 -2.203125 C 8.703125 -2.203125 9.726562 -2.6875 10.5625 -3.65625 L 12.390625 -1.984375 C 11.796875 -1.265625 11.066406 -0.71875 10.203125 -0.34375 C 9.347656 0.0195312 8.390625 0.203125 7.328125 0.203125 Z M 7.328125 0.203125 "/></g></g><g style="fill:#000000;fill-opacity:1;"><g transform="translate(39.035619, 81.459865)"><path style="stroke:none" d="M 13.46875 -22.4375 C 11.957031 -22.457031 10.609375 -22.21875 9.421875 -21.71875 C 8.242188 -21.226562 7.226562 -20.546875 6.375 -19.671875 C 5.53125 -18.804688 4.851562 -17.804688 4.34375 -16.671875 C 3.84375 -15.535156 3.5 -14.335938 3.3125 -13.078125 C 3.132812 -11.816406 3.128906 -10.550781 3.296875 -9.28125 C 3.460938 -8.019531 3.785156 -6.816406 4.265625 -5.671875 C 4.753906 -4.535156 5.40625 -3.515625 6.21875 -2.609375 C 7.039062 -1.710938 8.03125 -1 9.1875 -0.46875 C 10.34375 0.0507812 11.660156 0.320312 13.140625 0.34375 C 14.722656 0.363281 16.171875 0.0976562 17.484375 -0.453125 C 18.796875 -1.003906 19.9375 -1.785156 20.90625 -2.796875 C 21.882812 -3.804688 22.640625 -5 23.171875 -6.375 C 23.710938 -7.75 23.992188 -9.25 24.015625 -10.875 L 24.28125 -10.875 C 24.257812 -9.269531 23.984375 -7.765625 23.453125 -6.359375 C 22.921875 -4.960938 22.160156 -3.738281 21.171875 -2.6875 C 20.191406 -1.632812 18.992188 -0.8125 17.578125 -0.21875 C 16.160156 0.375 14.546875 0.65625 12.734375 0.625 C 10.921875 0.601562 9.3125 0.28125 7.90625 -0.34375 C 6.5 -0.976562 5.316406 -1.832031 4.359375 -2.90625 C 3.410156 -3.988281 2.691406 -5.238281 2.203125 -6.65625 C 1.710938 -8.070312 1.476562 -9.582031 1.5 -11.1875 C 1.519531 -12.800781 1.796875 -14.304688 2.328125 -15.703125 C 2.859375 -17.097656 3.613281 -18.320312 4.59375 -19.375 C 5.582031 -20.4375 6.785156 -21.257812 8.203125 -21.84375 C 9.617188 -22.4375 11.234375 -22.722656 13.046875 -22.703125 C 14.046875 -22.679688 14.910156 -22.585938 15.640625 -22.421875 C 16.378906 -22.253906 17.054688 -22.085938 17.671875 -21.921875 C 18.285156 -21.753906 18.914062 -21.664062 19.5625 -21.65625 C 20.007812 -21.644531 20.375 -21.738281 20.65625 -21.9375 C 20.945312 -22.144531 21.175781 -22.359375 21.34375 -22.578125 L 21.5625 -22.578125 L 14.609375 -4.03125 L 14.328125 -4.03125 L 19 -16.546875 C 19.351562 -17.609375 19.425781 -18.507812 19.21875 -19.25 C 19.007812 -19.988281 18.617188 -20.59375 18.046875 -21.0625 C 17.472656 -21.53125 16.78125 -21.875 15.96875 -22.09375 C 15.15625 -22.3125 14.320312 -22.425781 13.46875 -22.4375 Z M 13.46875 -22.4375 "/></g></g><g clip-rule="nonzero" clip-path="url(#15de35bd43)"><g clip-rule="nonzero" clip-path="url(#c45c3035b7)"><g clip-rule="nonzero" clip-path="url(#da5572bd3d)"><path style=" stroke:none;fill-rule:nonzero;fill:#256f28;fill-opacity:1;" d="M 63.738281 64.300781 C 63.25 66.394531 63.023438 66.574219 60.875 66.589844 C 60.878906 66.589844 60.882812 66.589844 60.886719 66.589844 C 62.96875 67.078125 63.148438 67.308594 63.160156 69.449219 C 63.648438 67.359375 63.875 67.179688 66.023438 67.164062 C 63.929688 66.675781 63.75 66.449219 63.738281 64.300781 Z M 63.738281 64.300781 "/></g></g></g><path style=" stroke:none;fill-rule:nonzero;fill:#700606;fill-opacity:1;" d="M 159.816406 82.476562 L 221.296875 82.476562 L 221.296875 93.269531 L 159.816406 93.269531 L 159.816406 82.476562 "/><g style="fill:#ffffff;fill-opacity:1;"><g transform="translate(159.83019, 90.74348)"><path style="stroke:none" d=""/></g></g><g style="fill:#ffffff;fill-opacity:1;"><g transform="translate(161.639357, 90.74348)"><path style="stroke:none" d="M 2.65625 0.078125 C 2.195312 0.078125 1.800781 -0.0234375 1.46875 -0.234375 C 1.132812 -0.441406 0.875 -0.753906 0.6875 -1.171875 C 0.507812 -1.585938 0.421875 -2.109375 0.421875 -2.734375 C 0.421875 -3.347656 0.53125 -3.863281 0.75 -4.28125 C 0.96875 -4.707031 1.269531 -5.019531 1.65625 -5.21875 C 2.039062 -5.425781 2.484375 -5.53125 2.984375 -5.53125 C 3.515625 -5.53125 3.960938 -5.429688 4.328125 -5.234375 C 4.691406 -5.046875 4.953125 -4.757812 5.109375 -4.375 L 4.3125 -3.90625 L 4.21875 -3.90625 C 4.113281 -4.144531 3.957031 -4.320312 3.75 -4.4375 C 3.550781 -4.550781 3.296875 -4.609375 2.984375 -4.609375 C 2.515625 -4.609375 2.15625 -4.457031 1.90625 -4.15625 C 1.664062 -3.863281 1.546875 -3.390625 1.546875 -2.734375 C 1.546875 -2.066406 1.660156 -1.582031 1.890625 -1.28125 C 2.117188 -0.988281 2.460938 -0.84375 2.921875 -0.84375 C 3.316406 -0.84375 3.601562 -0.929688 3.78125 -1.109375 C 3.96875 -1.285156 4.0625 -1.550781 4.0625 -1.90625 L 4.0625 -2.140625 L 2.78125 -2.140625 L 2.78125 -3.015625 L 5.140625 -3.015625 L 5.140625 0 L 4.109375 0 L 4.109375 -0.734375 L 4.03125 -0.75 C 3.914062 -0.476562 3.742188 -0.269531 3.515625 -0.125 C 3.296875 0.0078125 3.007812 0.078125 2.65625 0.078125 Z M 2.65625 0.078125 "/></g><g transform="translate(167.324071, 90.74348)"><path style="stroke:none" d="M 0.703125 0 L 0.703125 -5.453125 L 2.90625 -5.453125 C 3.46875 -5.453125 3.890625 -5.320312 4.171875 -5.0625 C 4.460938 -4.800781 4.609375 -4.441406 4.609375 -3.984375 C 4.609375 -3.648438 4.523438 -3.378906 4.359375 -3.171875 C 4.191406 -2.960938 3.941406 -2.800781 3.609375 -2.6875 L 3.609375 -2.609375 C 3.773438 -2.535156 3.910156 -2.425781 4.015625 -2.28125 C 4.117188 -2.132812 4.21875 -1.914062 4.3125 -1.625 L 4.859375 0 L 3.75 0 L 3.21875 -1.625 C 3.164062 -1.789062 3.101562 -1.921875 3.03125 -2.015625 C 2.96875 -2.109375 2.882812 -2.171875 2.78125 -2.203125 C 2.675781 -2.242188 2.535156 -2.265625 2.359375 -2.265625 L 1.78125 -2.265625 L 1.78125 0 Z M 2.765625 -3.125 C 3.285156 -3.125 3.546875 -3.367188 3.546875 -3.859375 C 3.546875 -4.347656 3.285156 -4.59375 2.765625 -4.59375 L 1.78125 -4.59375 L 1.78125 -3.125 Z M 2.765625 -3.125 "/></g><g transform="translate(172.419811, 90.74348)"><path style="stroke:none" d="M 2.96875 0.078125 C 2.46875 0.078125 2.023438 -0.0195312 1.640625 -0.21875 C 1.265625 -0.425781 0.96875 -0.738281 0.75 -1.15625 C 0.53125 -1.582031 0.421875 -2.109375 0.421875 -2.734375 C 0.421875 -3.347656 0.53125 -3.863281 0.75 -4.28125 C 0.96875 -4.707031 1.265625 -5.019531 1.640625 -5.21875 C 2.023438 -5.425781 2.46875 -5.53125 2.96875 -5.53125 C 3.46875 -5.53125 3.90625 -5.425781 4.28125 -5.21875 C 4.664062 -5.019531 4.96875 -4.707031 5.1875 -4.28125 C 5.40625 -3.863281 5.515625 -3.347656 5.515625 -2.734375 C 5.515625 -2.109375 5.40625 -1.582031 5.1875 -1.15625 C 4.96875 -0.738281 4.664062 -0.425781 4.28125 -0.21875 C 3.90625 -0.0195312 3.46875 0.078125 2.96875 0.078125 Z M 2.96875 -0.859375 C 3.4375 -0.859375 3.789062 -1.003906 4.03125 -1.296875 C 4.28125 -1.597656 4.40625 -2.078125 4.40625 -2.734375 C 4.40625 -3.378906 4.28125 -3.847656 4.03125 -4.140625 C 3.789062 -4.441406 3.4375 -4.59375 2.96875 -4.59375 C 2.507812 -4.59375 2.15625 -4.441406 1.90625 -4.140625 C 1.664062 -3.847656 1.546875 -3.378906 1.546875 -2.734375 C 1.546875 -2.078125 1.664062 -1.597656 1.90625 -1.296875 C 2.15625 -1.003906 2.507812 -0.859375 2.96875 -0.859375 Z M 2.96875 -0.859375 "/></g></g><g style="fill:#ffffff;fill-opacity:1;"><g transform="translate(178.343095, 90.74348)"><path style="stroke:none" d="M 2.609375 0 L 1.40625 0 L 0.15625 -5.453125 L 1.21875 -5.453125 L 2.046875 -1.625 L 2.140625 -1.625 L 3.125 -5.453125 L 4.046875 -5.453125 L 5.03125 -1.625 L 5.125 -1.625 L 5.953125 -5.453125 L 7 -5.453125 L 5.75 0 L 4.546875 0 L 3.578125 -3.515625 L 3.5 -3.515625 Z M 2.609375 0 "/></g></g><g style="fill:#ffffff;fill-opacity:1;"><g transform="translate(185.149841, 90.74348)"><path style="stroke:none" d="M 1.046875 0.03125 C 0.921875 0.03125 0.804688 0.00390625 0.703125 -0.046875 C 0.597656 -0.0976562 0.519531 -0.171875 0.46875 -0.265625 C 0.414062 -0.359375 0.390625 -0.46875 0.390625 -0.59375 C 0.390625 -0.707031 0.414062 -0.8125 0.46875 -0.90625 C 0.519531 -1 0.597656 -1.070312 0.703125 -1.125 C 0.804688 -1.1875 0.921875 -1.21875 1.046875 -1.21875 C 1.179688 -1.21875 1.300781 -1.191406 1.40625 -1.140625 C 1.507812 -1.085938 1.585938 -1.007812 1.640625 -0.90625 C 1.691406 -0.8125 1.71875 -0.707031 1.71875 -0.59375 C 1.71875 -0.414062 1.65625 -0.265625 1.53125 -0.140625 C 1.414062 -0.0234375 1.253906 0.03125 1.046875 0.03125 Z M 1.046875 0.03125 "/></g><g transform="translate(187.255981, 90.74348)"><path style="stroke:none" d=""/></g><g transform="translate(189.056451, 90.74348)"><path style="stroke:none" d="M 0.703125 0 L 0.703125 -5.453125 L 3.03125 -5.453125 C 3.375 -5.453125 3.660156 -5.398438 3.890625 -5.296875 C 4.117188 -5.191406 4.289062 -5.039062 4.40625 -4.84375 C 4.53125 -4.644531 4.59375 -4.414062 4.59375 -4.15625 C 4.59375 -3.914062 4.535156 -3.703125 4.421875 -3.515625 C 4.304688 -3.328125 4.140625 -3.179688 3.921875 -3.078125 L 3.921875 -2.984375 C 4.265625 -2.898438 4.523438 -2.738281 4.703125 -2.5 C 4.890625 -2.269531 4.984375 -1.984375 4.984375 -1.640625 C 4.984375 -1.109375 4.828125 -0.703125 4.515625 -0.421875 C 4.203125 -0.140625 3.738281 0 3.125 0 Z M 2.8125 -3.28125 C 3.3125 -3.28125 3.5625 -3.503906 3.5625 -3.953125 C 3.5625 -4.191406 3.5 -4.363281 3.375 -4.46875 C 3.25 -4.582031 3.0625 -4.640625 2.8125 -4.640625 L 1.78125 -4.640625 L 1.78125 -3.28125 Z M 3.015625 -0.859375 C 3.609375 -0.859375 3.90625 -1.125 3.90625 -1.65625 C 3.90625 -2.207031 3.609375 -2.484375 3.015625 -2.484375 L 1.78125 -2.484375 L 1.78125 -0.859375 Z M 3.015625 -0.859375 "/></g><g transform="translate(194.387034, 90.74348)"><path style="stroke:none" d="M 1.78125 -2.390625 L 1.78125 -0.90625 L 4.390625 -0.90625 L 4.390625 0 L 0.703125 0 L 0.703125 -5.453125 L 4.328125 -5.453125 L 4.328125 -4.546875 L 1.78125 -4.546875 L 1.78125 -3.28125 L 4.015625 -3.28125 L 4.015625 -2.390625 Z M 1.78125 -2.390625 "/></g><g transform="translate(199.072729, 90.74348)"><path style="stroke:none" d="M 2.984375 0 L 1.90625 0 L 1.90625 -2.140625 L 0.03125 -5.453125 L 1.1875 -5.453125 L 2.421875 -3.3125 L 2.515625 -3.3125 L 3.734375 -5.453125 L 4.875 -5.453125 L 2.984375 -2.140625 Z M 2.984375 0 "/></g></g><g style="fill:#ffffff;fill-opacity:1;"><g transform="translate(203.672687, 90.74348)"><path style="stroke:none" d="M 2.96875 0.078125 C 2.46875 0.078125 2.023438 -0.0195312 1.640625 -0.21875 C 1.265625 -0.425781 0.96875 -0.738281 0.75 -1.15625 C 0.53125 -1.582031 0.421875 -2.109375 0.421875 -2.734375 C 0.421875 -3.347656 0.53125 -3.863281 0.75 -4.28125 C 0.96875 -4.707031 1.265625 -5.019531 1.640625 -5.21875 C 2.023438 -5.425781 2.46875 -5.53125 2.96875 -5.53125 C 3.46875 -5.53125 3.90625 -5.425781 4.28125 -5.21875 C 4.664062 -5.019531 4.96875 -4.707031 5.1875 -4.28125 C 5.40625 -3.863281 5.515625 -3.347656 5.515625 -2.734375 C 5.515625 -2.109375 5.40625 -1.582031 5.1875 -1.15625 C 4.96875 -0.738281 4.664062 -0.425781 4.28125 -0.21875 C 3.90625 -0.0195312 3.46875 0.078125 2.96875 0.078125 Z M 2.96875 -0.859375 C 3.4375 -0.859375 3.789062 -1.003906 4.03125 -1.296875 C 4.28125 -1.597656 4.40625 -2.078125 4.40625 -2.734375 C 4.40625 -3.378906 4.28125 -3.847656 4.03125 -4.140625 C 3.789062 -4.441406 3.4375 -4.59375 2.96875 -4.59375 C 2.507812 -4.59375 2.15625 -4.441406 1.90625 -4.140625 C 1.664062 -3.847656 1.546875 -3.378906 1.546875 -2.734375 C 1.546875 -2.078125 1.664062 -1.597656 1.90625 -1.296875 C 2.15625 -1.003906 2.507812 -0.859375 2.96875 -0.859375 Z M 2.96875 -0.859375 "/></g><g transform="translate(209.610883, 90.74348)"><path style="stroke:none" d="M 1.75 0 L 0.703125 0 L 0.703125 -5.453125 L 1.9375 -5.453125 L 4.140625 -1.9375 L 4.234375 -1.953125 L 4.234375 -5.453125 L 5.265625 -5.453125 L 5.265625 0 L 4.15625 0 L 1.84375 -3.75 L 1.75 -3.734375 Z M 1.75 0 "/></g><g transform="translate(215.586356, 90.74348)"><path style="stroke:none" d="M 2.671875 -5.453125 C 3.554688 -5.453125 4.226562 -5.222656 4.6875 -4.765625 C 5.15625 -4.304688 5.390625 -3.628906 5.390625 -2.734375 C 5.390625 -1.828125 5.15625 -1.144531 4.6875 -0.6875 C 4.226562 -0.226562 3.554688 0 2.671875 0 L 0.703125 0 L 0.703125 -5.453125 Z M 2.609375 -0.90625 C 3.171875 -0.90625 3.585938 -1.046875 3.859375 -1.328125 C 4.140625 -1.617188 4.28125 -2.085938 4.28125 -2.734375 C 4.28125 -3.367188 4.140625 -3.828125 3.859375 -4.109375 C 3.585938 -4.398438 3.171875 -4.546875 2.609375 -4.546875 L 1.78125 -4.546875 L 1.78125 -0.90625 Z M 2.609375 -0.90625 "/></g></g></g></svg>